HIERARCHY
ROOT Hips
{
	OFFSET	0.00	0.00	0.00
	CHANNELS 6 Xposition Yposition Zposition Zrotation Xrotation Yrotation
	JOINT LeftUpLeg
	{
		OFFSET	 0.126116	-0.014019	-0.065224
		CHANNELS 3 Zrotation Xrotation Yrotation
		JOINT LeftLeg
		{
			OFFSET	 0.000000	 0.000000	 0.569914
			CHANNELS 3 Zrotation Xrotation Yrotation
			JOINT LeftFoot
			{
				OFFSET	 0.000000	 0.000000	 0.544423
				CHANNELS 3 Zrotation Xrotation Yrotation
				JOINT LeftToeBase
				{
					OFFSET	 0.000000	 0.000000	 0.207117
					CHANNELS 3 Zrotation Xrotation Yrotation
					End Site
					{
						OFFSET	 0.000000	 0.000000	 0.207117
					}
				}
			}
		}
	}
	JOINT RightUpLeg
	{
		OFFSET	-0.124023	-0.008373	-0.065224
		CHANNELS 3 Zrotation Xrotation Yrotation
		JOINT RightLeg
		{
			OFFSET	 0.000000	 0.000000	 0.570047
			CHANNELS 3 Zrotation Xrotation Yrotation
			JOINT RightFoot
			{
				OFFSET	 0.000000	 0.000000	 0.544354
				CHANNELS 3 Zrotation Xrotation Yrotation
				JOINT RightToeBase
				{
					OFFSET	 0.000000	 0.000000	 0.207540
					CHANNELS 3 Zrotation Xrotation Yrotation
					End Site
					{
						OFFSET	 0.000000	 0.000000	 0.207540
					}
				}
			}
		}
	}
	JOINT Spine
	{
		OFFSET	 0.000184	-0.007763	 0.117403
		CHANNELS 3 Zrotation Xrotation Yrotation
		JOINT Spine1
		{
			OFFSET	 0.000000	 0.000000	 0.137269
			CHANNELS 3 Zrotation Xrotation Yrotation
			JOINT Spine2
			{
				OFFSET	 0.000000	 0.000000	 0.156879
				CHANNELS 3 Zrotation Xrotation Yrotation
				JOINT LeftShoulder
				{
					OFFSET	 0.080501	-0.002496	 0.160144
					CHANNELS 3 Zrotation Xrotation Yrotation
					JOINT LeftArm
					{
						OFFSET	 0.000000	 0.000000	 0.164363
						CHANNELS 3 Zrotation Xrotation Yrotation
						JOINT LeftForeArm
						{
							OFFSET	 0.000000	 0.000000	 0.364576
							CHANNELS 3 Zrotation Xrotation Yrotation
							JOINT LeftHand
							{
								OFFSET	 0.000000	 0.000000	 0.360812
								CHANNELS 3 Zrotation Xrotation Yrotation
								JOINT LeftHandIndex1
								{
									OFFSET	 0.000000	 0.000000	 0.086006
									CHANNELS 3 Zrotation Xrotation Yrotation
									JOINT LeftHandIndex2
									{
										OFFSET	 0.000000	 0.000000	 0.047236
										CHANNELS 3 Zrotation Xrotation Yrotation
										JOINT LeftHandIndex3
										{
											OFFSET	-0.004284	-0.000551	 0.038166
											CHANNELS 3 Zrotation Xrotation Yrotation
											End Site
											{
												OFFSET	-0.004284	-0.000551	 0.038166
											}
										}
									}
								}
							}
						}
					}
				}
				JOINT Neck
				{
					OFFSET	 0.000000	 0.000000	 0.176489
					CHANNELS 3 Zrotation Xrotation Yrotation
					JOINT Head
					{
						OFFSET	 0.000000	-0.001747	 0.077940
						CHANNELS 3 Zrotation Xrotation Yrotation
						End Site
						{
							OFFSET	 0.000000	-0.001747	 0.077940
						}
					}
				}
				JOINT RightShoulder
				{
					OFFSET	-0.080363	 0.000306	 0.159706
					CHANNELS 3 Zrotation Xrotation Yrotation
					JOINT RightArm
					{
						OFFSET	 0.000000	 0.000000	 0.164196
						CHANNELS 3 Zrotation Xrotation Yrotation
						JOINT RightForeArm
						{
							OFFSET	 0.000000	 0.000000	 0.365611
							CHANNELS 3 Zrotation Xrotation Yrotation
							JOINT RightHand
							{
								OFFSET	 0.000000	 0.000000	 0.360648
								CHANNELS 3 Zrotation Xrotation Yrotation
								JOINT RightHandIndex1
								{
									OFFSET	 0.000000	 0.000000	 0.069977
									CHANNELS 3 Zrotation Xrotation Yrotation
									JOINT RightHandIndex2
									{
										OFFSET	 0.000000	 0.000000	 0.052305
										CHANNELS 3 Zrotation Xrotation Yrotation
										JOINT RightHandIndex3
										{
											OFFSET	 0.009002	-0.000782	 0.042196
											CHANNELS 3 Zrotation Xrotation Yrotation
											End Site
											{
												OFFSET	 0.009002	-0.000782	 0.042196
											}
										}
									}
								}
							}
						}
					}
				}
			}
		}
	}
}
MOTION
Frames:    4
Frame Time: 0.03333334
 0.000292	 0.019717	 1.271121	-0.003201	 0.003259	 0.172843	-1.966136	-1.717020	 177.924300	 1.472390	-12.027330	-0.702275	-6.967309	 71.233570	 0.821980	-2.385833	 28.452760	 0.000004	 1.802167	-1.789752	-178.203100	-1.463482	-11.659160	 0.667659	 6.641964	 70.892680	-0.673900	 2.384658	 28.388730	 0.000004	-4.455263	 2.722017	 0.302014	-2.162375	 3.667929	-0.812183	 6.546638	-4.499777	 1.409139	-91.776250	 78.527490	-180.000000	 57.816230	 39.936790	-60.879570	-8.258182	 0.189884	-0.524503	-30.285350	-11.038850	-4.443640	-2.635965	 4.993658	 6.788941	-5.165319	 0.784187	 3.516649	-5.225038	 0.466231	 0.424329	-0.000002	-3.783157	-0.089647	 6.373214	 4.628623	-0.257847	 89.782100	 78.203890	 180.000000	-64.266140	 42.048840	 56.798850	 7.995237	 3.792374	 8.642869	 30.612530	-11.747170	 9.132739	 6.112037	 4.509576	-0.364401	 4.968462	 1.518543	-9.347576	 5.168945	 0.703820	 2.021906
 0.000300	 0.019729	 1.271168	-0.002656	 0.004286	 0.174537	-1.558458	-1.782881	 177.896400	 1.471193	-12.122120	-0.707978	-6.994473	 71.262280	 0.851706	-2.385833	 28.452760	 0.000004	 1.393580	-1.851682	-178.180200	-1.462393	-11.750350	 0.673030	 6.663673	 70.920850	-0.696771	 2.384658	 28.388730	 0.000004	-5.988361	 2.606767	 0.283762	-2.146245	 4.067032	-0.776841	 6.495595	-5.016726	 1.432225	-91.776130	 78.527430	 180.000000	 57.854310	 39.947400	-60.606060	-9.119637	 0.206992	-1.034799	-30.982830	-12.357790	-4.593391	-2.635965	 4.993658	 6.788941	-5.165319	 0.784187	 3.516649	-5.225038	 0.466231	 0.424329	-0.000002	-3.783157	-0.089647	 6.302621	 4.393888	-0.242042	 89.782200	 78.203900	 179.999900	-63.648910	 41.340670	 58.475850	 7.917142	 3.518228	 8.543813	 31.302830	-13.605460	 8.981638	 6.112037	 4.509576	-0.364401	 4.968462	 1.518543	-9.347576	 5.168945	 0.703820	 2.021906
 0.000303	 0.019737	 1.271225	-0.002339	 0.004826	 0.174287	-1.349066	-1.815061	 177.883000	 1.470624	-12.167110	-0.710688	-7.007313	 71.275110	 0.865960	-2.385833	 28.452760	 0.000004	 1.184048	-1.883949	-178.167600	-1.461817	-11.798050	 0.675842	 6.674848	 70.935820	-0.708401	 2.384658	 28.388730	 0.000004	-6.850692	 2.548141	 0.273659	-2.126408	 4.270014	-0.754656	 6.434117	-5.282063	 1.435854	-91.776220	 78.527470	-180.000000	 57.846970	 39.950230	-60.426970	-9.613562	 0.223182	-1.327635	-31.388670	-13.111960	-4.693839	-2.635965	 4.993658	 6.788941	-5.165319	 0.784187	 3.516649	-5.225038	 0.466231	 0.424329	-0.000002	-3.783157	-0.089647	 6.232159	 4.278563	-0.233044	 89.782200	 78.203920	 179.999900	-62.984620	 40.612850	 59.535110	 7.667694	 3.544058	 8.963918	 31.862470	-14.842270	 8.833351	 6.112037	 4.509576	-0.364401	 4.968462	 1.518543	-9.347576	 5.168945	 0.703820	 2.021906
 0.000303	 0.019751	 1.271285	-0.001979	 0.005424	 0.173065	-1.118111	-1.849448	 177.869100	 1.470027	-12.214270	-0.713526	-7.020815	 71.288020	 0.881023	-2.385833	 28.452760	 0.000004	 0.953149	-1.920518	-178.152800	-1.461161	-11.852600	 0.679057	 6.687507	 70.953290	-0.721488	 2.384658	 28.388730	 0.000004	-7.846422	 2.484205	 0.262162	-2.095406	 4.491339	-0.727205	 6.338548	-5.573302	 1.432928	-91.776180	 78.527420	 180.000000	 57.813430	 39.941930	-60.187750	-10.193230	 0.249657	-1.674449	-31.869300	-13.987630	-4.825014	-2.635965	 4.993658	 6.788941	-5.165319	 0.784187	 3.516649	-5.225038	 0.466231	 0.424329	-0.000002	-3.783157	-0.089647	 6.127763	 4.155847	-0.222555	 89.782130	 78.203890	 180.000000	-61.343390	 39.430720	 59.344940	 7.037980	 4.714303	 12.218970	 32.455810	-16.316230	 8.643333	 6.112037	 4.509576	-0.364401	 4.968462	 1.518543	-9.347576	 5.168945	 0.703820	 2.021906
